<svg id="_005-youtube" data-name="005-youtube" xmlns="http://www.w3.org/2000/svg" width="19.519" height="13.419" viewBox="0 0 19.519 13.419">
  <g id="Group_32" data-name="Group 32" transform="translate(0 0)">
    <path id="Path_73" data-name="Path 73" d="M18.69,81.293c-.529-.942-1.1-1.115-2.274-1.181S12.308,80,9.762,80s-5.491.033-6.659.111S1.36,80.35.826,81.293,0,83.854,0,86.706v.01c0,2.84.281,4.472.826,5.4S1.935,93.232,3.1,93.311s4.109.109,6.66.109,5.485-.04,6.655-.107,1.745-.25,2.274-1.192c.55-.931.828-2.563.828-5.4v-.01C19.519,83.854,19.241,82.234,18.69,81.293ZM7.32,90.37V83.05l6.1,3.66Z" transform="translate(0 -80)" fill="#c5c5c5"/>
  </g>
</svg>
