<svg xmlns="http://www.w3.org/2000/svg" width="20.001" height="12.56" viewBox="0 0 20.001 12.56">
  <path id="noun_delivery_2057282" d="M34.072,27.776,30.454,24.8a.564.564,0,0,0-.135-.085h0a.564.564,0,0,0-.186-.04h-2.4V21.4a.564.564,0,0,0-.564-.564H14.844a.564.564,0,0,0-.564.564V31.19a.564.564,0,0,0,.564.564h1.874a2.257,2.257,0,0,0,4.346,0h6.942a2.257,2.257,0,0,0,4.346,0h1.366a.564.564,0,0,0,.564-.564V28.21A.564.564,0,0,0,34.072,27.776ZM29.557,25.8v1.575H27.734V25.8ZM15.448,21.969H26.606v8.657H21.08A2.217,2.217,0,0,0,21,30.383a.119.119,0,0,0-.034-.1,2.258,2.258,0,0,0-.192-.356l-.062-.079a2.257,2.257,0,0,0-.192-.231l-.107-.1a2.257,2.257,0,0,0-.2-.164l-.13-.085a2.258,2.258,0,0,0-.226-.124l-.141-.062a2.258,2.258,0,0,0-.271-.085l-.13-.034a2.116,2.116,0,0,0-.847,0l-.13.034a2.257,2.257,0,0,0-.271.085l-.141.062a2.258,2.258,0,0,0-.231.124l-.124.085a2.259,2.259,0,0,0-.209.169l-.1.09a2.257,2.257,0,0,0-.209.254L17,29.932a2.258,2.258,0,0,0-.2.361.139.139,0,0,1-.028.085,2.259,2.259,0,0,0-.085.248H15.409ZM18.93,32.308a1.18,1.18,0,1,0-.04,0Zm11.287,0a1.18,1.18,0,1,0-.04,0Zm2.974-1.693h-.824a2.217,2.217,0,0,0-.085-.243.119.119,0,0,0-.034-.1,2.258,2.258,0,0,0-.192-.356L32,29.841a2.257,2.257,0,0,0-.192-.231l-.107-.1a2.258,2.258,0,0,0-.2-.164l-.13-.085a2.256,2.256,0,0,0-.226-.124L31,29.08a2.257,2.257,0,0,0-.271-.085l-.13-.034a2.116,2.116,0,0,0-.847,0l-.13.034a2.258,2.258,0,0,0-.271.085l-.141.062a2.256,2.256,0,0,0-.231.124l-.124.085a2.257,2.257,0,0,0-.209.169l-.1.09a2.259,2.259,0,0,0-.209.254l-.045.056a2.258,2.258,0,0,0-.2.361.139.139,0,0,1-.028.085,2.257,2.257,0,0,0-.085.248h-.254V28.5h2.365a.564.564,0,0,0,.564-.564V26.433l2.489,2.049Z" transform="translate(-14.28 -20.84)"/>
</svg>
