<svg xmlns="http://www.w3.org/2000/svg" width="19" height="20.057" viewBox="0 0 19 20.057">
  <g id="noun_guarantee_2519048" transform="translate(-5 -3.997)">
    <path id="Path_91" data-name="Path 91" d="M23.493,6.584,14.7,4.026a.7.7,0,0,0-.4,0h0L5.5,6.584A.7.7,0,0,0,5,7.26v7.681c0,6.685,8.948,9,9.331,9.092a.689.689,0,0,0,.352,0C15.232,23.892,24,21.563,24,14.941V7.26A.7.7,0,0,0,23.493,6.584Zm-.9,8.356c0,5.137-6.91,7.354-8.093,7.681-1.182-.327-8.093-2.533-8.093-7.681V7.791L14.5,5.434l8.093,2.354Z" transform="translate(0)" fill="#1a6eff"/>
    <path id="Path_92" data-name="Path 92" d="M26.782,18.7v.735a2.111,2.111,0,0,0,.352,4.191h1.056a.7.7,0,1,1,0,1.407H26.078a.7.7,0,1,0,0,1.407h.7v.7a.7.7,0,1,0,1.407,0v-.7a2.111,2.111,0,1,0,0-4.222H27.133a.7.7,0,0,1,0-1.407h2.111a.7.7,0,0,0,0-1.407H28.189v-.7a.7.7,0,1,0-1.407,0Z" transform="translate(-12.985 -9.076)" fill="#1a6eff"/>
  </g>
</svg>
